<svg xmlns="http://www.w3.org/2000/svg" height="40" viewBox="0 -960 960 960" width="40"><path d="M808-61.334 640-226.666q-35 13-76.166 19.834Q522.667-200 480-200q-147.667 0-266.333-82.167Q95-364.333 40-500q20.333-52.333 54.667-100.5 34.333-48.167 82-90.167L56-812.001l46.666-47.333 750.001 750.001-44.667 48ZM480-326.667q13 0 26.834-2 13.833-2 24.833-6.333L315-551.667q-4.333 11.667-6.333 24.834-2 13.166-2 26.833 0 73 50.833 123.167 50.833 50.166 122.5 50.166ZM762.666-294 634.333-422q9-16.333 14-36.5t5-41.5q0-72.333-50.5-122.833T480-673.333q-21.333 0-41.167 4.667Q419-664 402-654L294.666-762q37-16.333 87.667-27.167Q433-800 483.333-800q145.667 0 264 82.167Q865.667-635.667 920-500q-25 62.333-64.833 114.5-39.834 52.167-92.501 91.5ZM585.667-470.666 451-605.333q28.666-9 57.166-1.5 28.501 7.499 49.501 28.166 21 21.334 29.5 48.167 8.5 26.833-1.5 59.834Z"/></svg>